<svg width="32" height="32" viewBox="0 0 32 32" fill="none"
    xmlns="http://www.w3.org/2000/svg">
    <path d="M16 32C24.8366 32 32 24.8366 32 16C32 7.16344 24.8366 0 16 0C7.16344 0 0 7.16344 0 16C0 24.8366 7.16344 32 16 32Z" fill="#00B67D"/>
    <path d="M21.1716 9.17157C19.6095 7.60948 17.3478 7.60948 15.7857 9.17157L9.17157 15.7857C7.60948 17.3478 7.60948 19.6095 9.17157 21.1716C10.7337 22.7337 12.9953 22.7337 14.5574 21.1716L21.1716 14.5574C22.7337 12.9953 22.7337 10.7337 21.1716 9.17157Z" fill="white"/>
    <path d="M16 12C14.3431 12 13 13.3431 13 15C13 16.6569 14.3431 18 16 18C17.6569 18 19 16.6569 19 15C19 13.3431 17.6569 12 16 12Z" fill="white"/>
    <path d="M22.8284 15.7857C21.2663 14.2236 19.0047 14.2236 17.4426 15.7857L15 18.2284L16.7716 20C18.3337 21.5621 20.5953 21.5621 22.1574 20L22.8284 19.3284C24.3905 17.7663 24.3905 15.5047 22.8284 13.9426L22.8284 15.7857Z" fill="white"/>
</svg>